<svg xmlns="http://www.w3.org/2000/svg" version="1.1" xmlns:xlink="http://www.w3.org/1999/xlink" width="402.3575616420942" height="200" viewBox="0 10.399999618530273 71.91999816894531 30.719999313354492"><path d="M23.40 13.64L23.08 14.12Q21 16.16 14.12 26.44L14.12 26.44Q19.76 25.40 21.10 25.40Q22.44 25.40 23.88 25.92Q25.32 26.44 25.32 27.08L25.32 27.08Q25.32 27.32 25.10 27.48Q24.88 27.64 24.66 27.64Q24.44 27.64 22.60 27.08Q20.76 26.52 19.06 26.52Q17.36 26.52 13.60 27.20L13.60 27.20Q6.28 37.92 3.92 40.04L3.92 40.04Q2.72 41.12 1.96 41.12L1.96 41.12Q1.28 41.12 1.28 40.16L1.28 40.16Q1.28 39.64 1.56 38.88Q1.84 38.12 2.32 38.12L2.32 38.12Q2.48 38.12 2.52 38.46Q2.56 38.80 2.64 38.80L2.64 38.80Q3.44 38.80 5.62 35.94Q7.80 33.08 11.60 27.56L11.60 27.56Q7 28.44 4.60 28.44L4.60 28.44Q0 28.44 0 26.02Q0 23.60 4.08 19.86Q8.16 16.12 14 13.26Q19.84 10.40 24.20 10.40L24.20 10.40Q27.28 10.40 27.28 12.08L27.28 12.08Q27.28 13.36 25.72 14.92Q24.16 16.48 23.24 16.48L23.24 16.48Q23 16.48 23 16.18Q23 15.88 23.16 15.76L23.16 15.76Q24 15.36 24.74 14.48Q25.48 13.60 25.48 12.84L25.48 12.84Q25.48 11.40 22.48 11.40Q19.48 11.40 14.56 13.92Q9.64 16.44 6 19.76Q2.36 23.08 2.36 25.22Q2.36 27.36 6.56 27.36L6.56 27.36Q8.16 27.36 12.16 26.72L12.16 26.72Q16.44 20.60 18.36 18.08L18.36 18.08Q21.88 13.52 23.20 13.52L23.20 13.52Q23.40 13.52 23.40 13.64L23.40 13.64ZM22 35.20L22 35.20Q21.76 35.20 21.76 35.02Q21.76 34.84 22.04 34.60L22.04 34.60Q23.36 33.52 23.36 32.64L23.36 32.64Q23.36 32.08 22.36 32L22.36 32Q20.56 32.04 18.06 34.60Q15.56 37.16 15.56 38.44L15.56 38.44Q15.56 38.88 16.06 38.88Q16.56 38.88 17.40 38.20L17.40 38.20Q18.16 37.72 20.24 35.80L20.24 35.80Q20.72 35.32 21.16 35.32L21.16 35.32Q21.72 35.32 21.72 35.84L21.72 35.84Q21.72 36.04 21.60 36.16Q21.48 36.28 21.16 36.66Q20.84 37.04 20.60 37.36L20.60 37.36Q19.88 38.40 19.88 38.72L19.88 38.72Q19.88 39.52 20.52 39.52L20.52 39.52Q21.36 39.52 23.68 37.98Q26 36.44 27.92 34.88L27.92 34.88L29.84 33.36Q30.12 33.16 30.36 33.16Q30.60 33.16 30.60 33.44L30.60 33.44L30.60 33.52Q27.52 36.12 24.10 38.40Q20.68 40.68 19.60 40.68L19.60 40.68Q18.32 40.68 18.32 39.32L18.32 39.32Q18.32 39 18.44 38.72Q18.56 38.44 18.56 38.32Q18.56 38.20 18.48 38.16L18.48 38.16Q18.36 38.16 16.94 39.24Q15.52 40.32 14.46 40.32Q13.40 40.32 13.40 39.20Q13.40 38.08 14.90 36.18Q16.40 34.28 18.92 32.72Q21.44 31.16 23.84 31.16L23.84 31.16Q24.40 31.16 24.78 31.44Q25.16 31.72 25.16 32.30Q25.16 32.88 24 34.04Q22.84 35.20 22 35.20ZM30.08 33.04L30.08 33.04L30 32.60Q30 32.40 30.84 32.40L30.84 32.40Q31.32 32.40 31.32 33Q31.32 33.60 29.94 35.66Q28.56 37.72 28.56 37.80Q28.56 37.88 28.72 37.88Q28.88 37.88 32.42 35.08Q35.96 32.28 36.68 32.28Q37.40 32.28 37.40 32.78Q37.40 33.28 37 33.90Q36.60 34.52 35.32 36.14Q34.04 37.76 33.96 37.88Q33.88 38 33.88 38.16Q33.88 38.32 34.14 38.32Q34.40 38.32 38.08 35.60Q41.76 32.88 42.28 32.88Q42.80 32.88 42.80 33.32L42.80 33.32Q42.80 34.12 41.04 36.12Q39.28 38.12 39.28 38.66Q39.28 39.20 39.70 39.20Q40.12 39.20 41.80 38.08L41.80 38.08Q44.80 36.08 47.32 34.04L47.32 34.04L48.20 33.32Q48.52 33.12 48.74 33.12Q48.96 33.12 48.96 33.36L48.96 33.36L48.96 33.48Q40.52 40.52 38.52 40.52L38.52 40.52Q37.36 40.52 37.36 39.56L37.36 39.56Q37.36 38.76 38.52 37.20Q39.68 35.64 39.68 35.50Q39.68 35.36 39.58 35.36Q39.48 35.36 36.30 37.64Q33.12 39.92 32.52 39.92L32.52 39.92Q32.24 39.92 32.04 39.70Q31.84 39.48 31.84 39.24L31.84 39.24Q31.84 38.52 33.56 36.32L33.56 36.32Q35.28 34.16 35.28 33.96L35.28 33.96Q35.28 33.76 35.04 33.76L35.04 33.76Q34.76 33.76 29.36 38.16L29.36 38.16L27.36 39.76Q26.84 40.20 26.58 40.20Q26.32 40.20 26.08 40.06Q25.84 39.92 25.84 39.64Q25.84 39.36 26.54 38.28Q27.24 37.20 28.36 35.64L28.36 35.64Q30.08 33.32 30.08 33.04ZM69.72 23.04L69.72 23.04L64 22.76Q60.48 22.76 57 23.04L57 23.04L57.20 23.84Q57.20 24.28 54.60 27.18Q52 30.08 49.40 33.50Q46.80 36.92 46.80 38.56L46.80 38.56Q46.80 39.20 47.26 39.20Q47.72 39.20 49.36 38.08L49.36 38.08Q52.40 36.08 54.92 34.04L54.92 34.04L55.80 33.32Q56.08 33.12 56.28 33.12Q56.48 33.12 56.48 33.36L56.48 33.36L56.48 33.48Q56.64 33.48 54.34 35.24Q52.04 37 49.42 38.76Q46.80 40.52 46.12 40.52L46.12 40.52Q44.96 40.52 44.96 39.48L44.96 39.48Q44.96 37.96 46.66 35.28Q48.36 32.60 50.38 30.22Q52.40 27.84 54.22 25.72Q56.04 23.60 56.20 23.12L56.20 23.12Q51.80 23.52 49.44 24.08L49.44 24.08L48.64 24.24Q48.32 24.28 48.32 24.84L48.32 24.84Q48.32 25.08 47.76 25.08Q47.20 25.08 46.38 24.82Q45.56 24.56 45.56 24.08Q45.56 23.60 46.36 23.44L46.36 23.44Q52.28 22.40 54.76 22.18Q57.24 21.96 58.06 21.90Q58.88 21.84 60.62 21.80Q62.36 21.76 62.96 21.76L62.96 21.76Q64.76 21.68 67.18 21.68Q69.60 21.68 70.12 21.88Q70.64 22.08 70.64 22.64L70.64 22.64Q70.64 23.04 69.72 23.04ZM60.02 27.92Q60.40 27.92 60.62 28.16Q60.84 28.40 60.84 28.84Q60.84 29.28 60.24 29.96Q59.64 30.64 59.20 30.64Q58.76 30.64 58.56 30.38Q58.36 30.12 58.36 29.78Q58.36 29.44 59 28.68Q59.64 27.92 60.02 27.92ZM62.44 34.04L63.32 33.32Q63.64 33.12 63.82 33.12Q64 33.12 64 33.36L64 33.36L64 33.48Q64.16 33.48 61.86 35.24Q59.56 37 56.94 38.76Q54.32 40.52 53.64 40.52L53.64 40.52Q52.48 40.52 52.48 39.56L52.48 39.56Q52.48 38.40 54.48 35.18Q56.48 31.96 57.40 31.96L57.40 31.96Q58.08 31.96 58.08 32.48Q58.08 33 56.24 35.32Q54.40 37.64 54.40 38.64L54.40 38.64Q54.40 39.20 54.82 39.20Q55.24 39.20 56.92 38.08L56.92 38.08Q59.92 36.08 62.44 34.04L62.44 34.04ZM70.04 34.24L71.16 33.36Q71.48 33.16 71.70 33.16Q71.92 33.16 71.92 33.44L71.92 33.44L71.92 33.52Q68.84 36.12 65.42 38.40Q62.00 40.68 61.08 40.68Q60.16 40.68 59.54 40.34Q58.92 40 58.92 39.56Q58.92 39.12 59.16 38.82Q59.40 38.52 59.60 38.52Q59.80 38.52 60.26 39.14Q60.72 39.76 61.16 39.76L61.16 39.76Q62.08 39.76 62.60 37.80Q63.12 35.84 63.12 35.10Q63.12 34.36 63.02 34.36Q62.92 34.36 62.84 34.44L62.84 34.44L61.68 35.36L61.52 34.76Q64.04 32.76 64.44 32.08L64.44 32.08Q64.68 31.44 65.12 31.44L65.12 31.44Q65.40 31.44 65.40 31.64Q65.40 31.84 65.12 32.50Q64.84 33.16 64.38 35.48Q63.92 37.80 63.92 38.16Q63.92 38.52 64.12 38.52L64.12 38.52Q66.92 36.80 70.04 34.24L70.04 34.24Z" fill="black"></path></svg>